<svg width="50" height="50" viewBox="0 0 50 50" fill="none" xmlns="http://www.w3.org/2000/svg">
<path d="M18.75 4.16663H8.33335C7.22829 4.16663 6.16848 4.60561 5.38708 5.38701C4.60567 6.16842 4.16669 7.22822 4.16669 8.33329V18.75C4.16669 19.855 4.60567 20.9148 5.38708 21.6962C6.16848 22.4776 7.22829 22.9166 8.33335 22.9166H18.75C19.8551 22.9166 20.9149 22.4776 21.6963 21.6962C22.4777 20.9148 22.9167 19.855 22.9167 18.75V8.33329C22.9167 7.22822 22.4777 6.16842 21.6963 5.38701C20.9149 4.60561 19.8551 4.16663 18.75 4.16663ZM18.75 14.5833H8.33335V12.5H18.75V14.5833ZM41.6667 27.0833H31.25C30.145 27.0833 29.0851 27.5223 28.3037 28.3037C27.5223 29.0851 27.0834 30.1449 27.0834 31.25V41.6666C27.0834 42.7717 27.5223 43.8315 28.3037 44.6129C29.0851 45.3943 30.145 45.8333 31.25 45.8333H41.6667C42.7718 45.8333 43.8316 45.3943 44.613 44.6129C45.3944 43.8315 45.8334 42.7717 45.8334 41.6666V31.25C45.8334 30.1449 45.3944 29.0851 44.613 28.3037C43.8316 27.5223 42.7718 27.0833 41.6667 27.0833ZM41.6667 39.5833H31.25V37.5H41.6667V39.5833ZM41.6667 35.4166H31.25V33.3333H41.6667V35.4166ZM41.6667 4.16663H31.25C30.145 4.16663 29.0851 4.60561 28.3037 5.38701C27.5223 6.16842 27.0834 7.22822 27.0834 8.33329V18.75C27.0834 19.855 27.5223 20.9148 28.3037 21.6962C29.0851 22.4776 30.145 22.9166 31.25 22.9166H41.6667C42.7718 22.9166 43.8316 22.4776 44.613 21.6962C45.3944 20.9148 45.8334 19.855 45.8334 18.75V8.33329C45.8334 7.22822 45.3944 6.16842 44.613 5.38701C43.8316 4.60561 42.7718 4.16663 41.6667 4.16663ZM41.6667 14.5833H37.5V18.75H35.4167V14.5833H31.25V12.5H35.4167V8.33329H37.5V12.5H41.6667V14.5833ZM18.75 27.0833H8.33335C7.22829 27.0833 6.16848 27.5223 5.38708 28.3037C4.60567 29.0851 4.16669 30.1449 4.16669 31.25V41.6666C4.16669 42.7717 4.60567 43.8315 5.38708 44.6129C6.16848 45.3943 7.22829 45.8333 8.33335 45.8333H18.75C19.8551 45.8333 20.9149 45.3943 21.6963 44.6129C22.4777 43.8315 22.9167 42.7717 22.9167 41.6666V31.25C22.9167 30.1449 22.4777 29.0851 21.6963 28.3037C20.9149 27.5223 19.8551 27.0833 18.75 27.0833ZM17.9584 39.3958L16.4792 40.875L13.5417 37.9375L10.6042 40.875L9.12502 39.3958L12.0625 36.4583L9.12502 33.5208L10.6042 32.0416L13.5417 34.9791L16.4792 32.0416L17.9584 33.5208L15.0209 36.4583L17.9584 39.3958Z" fill="#C73200"/>
</svg>
