<svg width="25" height="25" viewBox="0 0 25 25" fill="none" xmlns="http://www.w3.org/2000/svg">
<g clip-path="url(#clip0_564_158)">
<path d="M3.12502 3.90633V0.781256C3.12502 0.349383 3.4744 0 3.90638 0C4.33815 0 4.68753 0.349383 4.68753 0.781256V3.90633C4.68753 4.3381 4.33815 4.68749 3.90638 4.68749C3.4744 4.68754 3.12502 4.3381 3.12502 3.90633ZM16.4064 4.68754C16.8381 4.68754 17.1877 4.33816 17.1877 3.90639V0.781256C17.1877 0.349383 16.8381 0 16.4064 0C15.9746 0 15.6249 0.349383 15.6249 0.781256V3.90633C15.6249 4.3381 15.9746 4.68754 16.4064 4.68754ZM25 18.7498C25 22.2017 22.2016 25.0001 18.75 25.0001C15.2986 25.0001 12.5 22.2017 12.5 18.7498C12.5 15.2985 15.2986 12.5 18.75 12.5C22.2016 12.5 25 15.2984 25 18.7498ZM23.4377 18.7498C23.4377 16.1654 21.335 14.0624 18.75 14.0624C16.1653 14.0624 14.0626 16.1653 14.0626 18.7498C14.0626 21.3348 16.1653 23.4375 18.75 23.4375C21.335 23.4375 23.4377 21.3348 23.4377 18.7498ZM6.2501 9.37503H3.12502V12.5H6.2501V9.37503ZM3.12502 17.1875H6.2501V14.0624H3.12502V17.1875ZM7.81251 12.5H10.9376V9.37503H7.81251V12.5ZM7.81251 17.1875H10.9376V14.0624H7.81251V17.1875ZM1.56261 18.5945V7.81246H18.75V10.9375H20.3126V4.84324C20.3126 3.89412 19.5556 3.12497 18.6204 3.12497H17.9688V3.90639C17.9688 4.76689 17.2683 5.46885 16.4065 5.46885C15.5444 5.46885 14.844 4.76689 14.844 3.90639V3.12497H5.46874V3.90639C5.46874 4.76689 4.76837 5.46885 3.90643 5.46885C3.04428 5.46885 2.34387 4.76689 2.34387 3.90639V3.12497H1.69302C0.757756 3.12497 4.57764e-05 3.89412 4.57764e-05 4.84324V18.5946C4.57764e-05 19.5405 0.757756 20.3127 1.69302 20.3127H10.9376V18.7499H1.69302C1.62222 18.7498 1.56261 18.6767 1.56261 18.5945ZM15.6249 12.5V9.37503H12.5001V12.5H15.6249ZM22.0641 17.2275C21.7589 16.922 21.2645 16.922 20.9596 17.2275L18.1978 19.9893L16.5403 18.3319C16.2351 18.0268 15.7407 18.0268 15.4356 18.3319C15.1305 18.6371 15.1304 19.1315 15.4356 19.4366L17.6453 21.6463C17.7977 21.7987 17.9978 21.8749 18.1979 21.8749C18.3975 21.8749 18.5973 21.7987 18.75 21.6463L22.0641 18.3319C22.3692 18.0268 22.3692 17.5326 22.0641 17.2275Z" fill="white"/>
</g>
<defs>
<clipPath id="clip0_564_158">
<rect width="25.0001" height="25" fill="white"/>
</clipPath>
</defs>
</svg>
