<svg width="56" height="56" viewBox="0 0 56 56" fill="none" xmlns="http://www.w3.org/2000/svg">
<path d="M49.67 15.999H6.33C4.65118 15.999 3.04112 16.6659 1.85401 17.853C0.666909 19.0401 0 20.6502 0 22.329V22.999C0 23.2642 0.105357 23.5186 0.292893 23.7061C0.48043 23.8937 0.734784 23.999 1 23.999H56V22.329C56 20.6502 55.3331 19.0401 54.146 17.853C52.9589 16.6659 51.3488 15.999 49.67 15.999Z" fill="#C73200"/>
<path d="M54.77 31.999H1.23C0.903784 31.999 0.590928 32.1286 0.360259 32.3593C0.129589 32.59 0 32.9028 0 33.229V49.669C0 51.3478 0.666909 52.9579 1.85401 54.145C3.04112 55.3321 4.65118 55.999 6.33 55.999H49.67C51.3488 55.999 52.9589 55.3321 54.146 54.145C55.3331 52.9579 56 51.3478 56 49.669V33.229C56 32.9028 55.8704 32.59 55.6397 32.3593C55.4091 32.1286 55.0962 31.999 54.77 31.999ZM34 35.999H39.89C40.3816 35.9798 40.864 36.1364 41.2506 36.4406C41.6373 36.7448 41.9029 37.1767 42 37.659C42.05 37.9486 42.0355 38.2457 41.9577 38.5291C41.8798 38.8125 41.7404 39.0753 41.5495 39.2987C41.3585 39.5221 41.1207 39.7007 40.8529 39.8217C40.5851 39.9428 40.2939 40.0033 40 39.999H34.11C33.6184 40.0182 33.136 39.8617 32.7494 39.5575C32.3627 39.2533 32.0971 38.8213 32 38.339C31.95 38.0494 31.9645 37.7523 32.0423 37.4689C32.1202 37.1855 32.2596 36.9228 32.4505 36.6994C32.6415 36.476 32.8793 36.2974 33.1471 36.1763C33.4149 36.0553 33.7061 35.9947 34 35.999ZM25.87 43.279C25.667 44.2011 25.2492 45.0623 24.6506 45.7925C24.0521 46.5227 23.2897 47.1014 22.4253 47.4814C21.561 47.8614 20.6192 48.0321 19.6765 47.9796C18.7338 47.927 17.8167 47.6527 17 47.179C16.1761 47.6548 15.251 47.9278 14.3008 47.9755C13.3507 48.0233 12.4028 47.8444 11.5354 47.4537C10.668 47.063 9.90589 46.4716 9.31205 45.7283C8.71821 44.9851 8.30962 44.1113 8.12 43.179C7.94541 42.3086 7.96614 41.4103 8.18071 40.5488C8.39528 39.6874 8.79833 38.8843 9.36081 38.1975C9.92328 37.5107 10.6312 36.9572 11.4334 36.577C12.2356 36.1969 13.1122 35.9994 14 35.999C15.0551 36.0011 16.0906 36.2841 17 36.819C18.0067 36.2358 19.1612 35.9579 20.3229 36.019C21.4847 36.0801 22.6037 36.4776 23.5436 37.1632C24.4835 37.8488 25.2038 38.7929 25.6169 39.8805C26.0299 40.9681 26.1179 42.1523 25.87 43.289V43.279ZM35.42 47.409C35.2339 47.5962 35.0127 47.7447 34.769 47.8459C34.5253 47.9472 34.2639 47.9992 34 47.999C33.6057 47.9974 33.2206 47.8792 32.8933 47.6593C32.5659 47.4394 32.3108 47.1277 32.1602 46.7633C32.0095 46.3988 31.9699 45.998 32.0464 45.6112C32.1229 45.2243 32.312 44.8687 32.59 44.589C32.9725 44.2275 33.4788 44.0261 34.005 44.0261C34.5312 44.0261 35.0375 44.2275 35.42 44.589C35.7925 44.9637 36.0016 45.4707 36.0016 45.999C36.0016 46.5274 35.7925 47.0343 35.42 47.409ZM46 47.999H40.11C39.6184 48.0182 39.136 47.8617 38.7494 47.5575C38.3627 47.2533 38.0971 46.8213 38 46.339C37.95 46.0494 37.9645 45.7523 38.0423 45.4689C38.1202 45.1855 38.2596 44.9228 38.4505 44.6994C38.6415 44.476 38.8793 44.2974 39.1471 44.1763C39.4149 44.0553 39.7061 43.9947 40 43.999H45.89C46.3816 43.9798 46.864 44.1364 47.2506 44.4406C47.6373 44.7448 47.9029 45.1767 48 45.659C48.05 45.9486 48.0355 46.2457 47.9577 46.5291C47.8798 46.8125 47.7404 47.0753 47.5495 47.2987C47.3585 47.5221 47.1207 47.7007 46.8529 47.8217C46.5851 47.9428 46.2939 48.0033 46 47.999ZM47.41 39.409C47.3217 39.5055 47.2208 39.5896 47.11 39.659C47.0047 39.7357 46.8905 39.7995 46.77 39.849C46.6481 39.9004 46.5205 39.9374 46.39 39.959C46.2621 39.9878 46.1311 40.0012 46 39.999C45.4696 39.999 44.9609 39.7883 44.5858 39.4132C44.2107 39.0382 44 38.5295 44 37.999C43.9852 37.8694 43.9852 37.7386 44 37.609C44.0257 37.4827 44.0625 37.3589 44.11 37.239C44.1612 37.1161 44.2248 36.9989 44.3 36.889C44.3692 36.7781 44.4533 36.6771 44.55 36.589C44.6382 36.4925 44.7391 36.4083 44.85 36.339C44.9601 36.2642 45.0773 36.2006 45.2 36.149C45.3183 36.0973 45.4426 36.0603 45.57 36.039C45.8275 35.9878 46.0925 35.9878 46.35 36.039C46.4803 36.0616 46.6078 36.0985 46.73 36.149C46.8485 36.2027 46.9622 36.2663 47.07 36.339C47.1809 36.4083 47.2818 36.4925 47.37 36.589C47.5632 36.7706 47.7184 36.9887 47.8266 37.2308C47.9347 37.4728 47.9937 37.734 48 37.999C47.9978 38.5286 47.7856 39.0357 47.41 39.409Z" fill="#C73200"/>
<path d="M35.68 0.738988L16.18 11.999H48.58L43.25 2.76899C42.5138 1.49759 41.3036 0.569943 39.8846 0.189413C38.4655 -0.191116 36.9535 0.00651658 35.68 0.738988Z" fill="#C73200"/>
</svg>
