<svg width="63" height="50" viewBox="0 0 63 50" fill="none" xmlns="http://www.w3.org/2000/svg">
<g clip-path="url(#clip0_566_311)">
<path d="M0 37.4902L6.25 37.4942C7.9834 37.4942 9.375 36.0987 9.375 34.3662V12.5293H0V37.4902ZM4.6875 31.2598C5.54199 31.2598 6.25 31.9549 6.25 32.8213C6.25 33.675 5.54199 34.3828 4.6875 34.3828C3.83301 34.3828 3.125 33.6719 3.125 32.8223C3.125 31.9531 3.83301 31.2598 4.6875 31.2598ZM34.0625 6.25C33.287 6.25 32.5332 6.53994 31.9609 7.06328L22.3535 15.8496C22.3438 15.8691 22.3438 15.8887 22.3242 15.8887C20.7031 17.4121 20.7324 19.8437 22.1191 21.3574C23.3643 22.6367 25.9648 23.0781 27.6006 21.626C27.6172 21.6113 27.627 21.6113 27.6367 21.6016L35.4375 14.4629C36.0723 13.8896 37.0732 13.9262 37.6465 14.5605C38.2324 15.1949 38.1836 16.1836 37.5488 16.7695L34.998 19.1006L49.2188 30.6348C49.4995 30.8785 49.7559 31.1227 49.9878 31.3908V12.4121C45.9858 8.41211 40.5659 6.17383 34.9097 6.17383L34.0625 6.25ZM32.6758 21.2305L29.7461 23.915C26.8408 26.5625 22.3975 26.3066 19.8047 23.4882C17.1875 20.625 17.3926 16.1816 20.2441 13.5645L28.2324 6.25H27.5879C21.9434 6.25 16.5137 8.50391 12.5195 12.4902L12.5 34.3555L14.2822 34.3591L23.1201 42.3493C25.8057 44.5339 29.7363 44.1188 31.9092 41.4464L33.6787 42.9347C35.2295 44.1163 37.5244 43.96 38.7939 42.4101L41.8584 38.6406L42.3832 39.0799C43.726 40.1541 45.6918 39.959 46.7777 38.6162L47.7092 37.4658C48.7951 36.123 48.5916 34.167 47.2508 33.0781L32.6758 21.2305ZM53.125 12.5391V34.375C53.125 36.0957 54.5166 37.5049 56.1621 37.5049L62.5 37.5V12.5098L53.125 12.5391ZM57.8125 34.375C56.958 34.375 56.25 33.6674 56.25 32.8135C56.25 31.9468 56.958 31.2519 57.8125 31.2519C58.667 31.2519 59.375 31.9531 59.375 32.8223C59.375 33.6719 58.6719 34.375 57.8125 34.375Z" fill="#C73200"/>
</g>
<defs>
<clipPath id="clip0_566_311">
<rect width="62.5" height="50" fill="white"/>
</clipPath>
</defs>
</svg>
