<svg width="50" height="50" viewBox="0 0 50 50" fill="none" xmlns="http://www.w3.org/2000/svg">
<path d="M22.9813 24.7609C22.2688 23.225 21.875 21.4719 21.875 19.5312C21.875 17.5906 22.2688 15.6422 22.9813 13.8141C23.6922 11.9844 24.7219 10.2734 25.9953 8.80625C27.2672 7.34063 28.7828 6.11406 30.4641 5.25781C32.1469 4.39688 33.9969 3.90625 35.9375 3.90625C37.8781 3.90625 39.7281 4.3 41.4109 5.01094C43.0938 5.72344 44.6078 6.75313 45.8797 8.025C47.15 9.29688 48.1828 10.8125 48.8937 12.4953C49.6078 14.1766 50 16.0281 50 17.9688C50 19.9094 49.6063 21.7609 48.8937 23.4422C48.1828 25.125 47.1531 26.6406 45.8797 27.9125C44.6094 29.1844 26.6828 45.3812 25 46.0938C23.3172 45.3812 5.39062 29.1844 4.11875 27.9125C2.84687 26.6406 1.81719 25.125 1.10469 23.4422C0.39375 21.7609 0 19.9094 0 17.9688C0 16.0281 0.39375 14.1766 1.10469 12.4953C1.81719 10.8125 2.84531 9.29688 4.11875 8.025C5.39062 6.75313 6.90625 5.72344 8.58906 5.01094C10.2703 4.3 12.1203 3.90625 14.0625 3.90625C16.0047 3.90625 17.8547 4.39687 19.5359 5.25469C21.2188 6.11406 22.7328 7.33906 24.0063 8.80469C25.2781 10.2719 26.3078 11.9828 27.0203 13.8125C27.7312 15.6422 28.125 17.5906 28.125 19.5312C28.125 21.4719 27.7312 23.225 27.0203 24.7609C26.3078 26.2969 25.2812 27.6172 24.0063 28.6953" fill="#C73200"/>
</svg>
