<svg width="25" height="25" viewBox="0 0 25 25" fill="none" xmlns="http://www.w3.org/2000/svg">
<path d="M13.4875 10.3625L11.875 11.975L11.5125 11.6125C11.025 11.125 10.2375 11.125 9.75002 11.6125C9.26252 12.1 9.26252 12.8875 9.75002 13.375L11 14.625C11.25 14.875 11.5625 14.9875 11.8875 14.9875C12.2125 14.9875 12.525 14.8625 12.775 14.625L15.275 12.125C15.7625 11.6375 15.7625 10.85 15.275 10.3625C14.7875 9.87501 13.975 9.87501 13.4875 10.3625Z" fill="white"/>
<path d="M12.5 0C5.6 0 0 5.6 0 12.5C0 19.4 5.6 25 12.5 25C19.4 25 25 19.4 25 12.5C25 5.6 19.4 0 12.5 0ZM12.5 22.5C6.9875 22.5 2.5 18.0125 2.5 12.5C2.5 6.9875 6.9875 2.5 12.5 2.5C18.0125 2.5 22.5 6.9875 22.5 12.5C22.5 18.0125 18.0125 22.5 12.5 22.5Z" fill="white"/>
<path d="M17.2875 6.56245C16.775 7.02495 16.725 7.81245 17.1875 8.32495C17.475 8.64995 17.725 8.99995 17.9375 9.36245C18.1625 9.76245 18.5875 9.98745 19.025 9.98745C19.2375 9.98745 19.45 9.93745 19.65 9.82495C20.25 9.48745 20.45 8.71245 20.1125 8.11245C19.8125 7.58745 19.4625 7.09995 19.0625 6.64995C18.5875 6.14995 17.8 6.11245 17.2875 6.56245Z" fill="white"/>
<path d="M18.775 12.5C18.775 15.9625 15.9625 18.775 12.5 18.775C9.03749 18.775 6.22499 15.9625 6.22499 12.5C6.22499 9.03746 9.03749 6.22496 12.5 6.22496C13.2125 6.22496 13.9125 6.34996 14.5875 6.57496C15.2375 6.79996 15.95 6.46246 16.1875 5.81246C16.4125 5.16246 16.075 4.44996 15.425 4.21246C14.4875 3.88746 13.5125 3.71246 12.5125 3.71246C7.67499 3.71246 3.73749 7.64996 3.73749 12.4875C3.73749 17.325 7.67499 21.2625 12.5125 21.2625C17.35 21.2625 21.2875 17.325 21.2875 12.4875C21.2875 11.8 20.725 11.2375 20.0375 11.2375C19.35 11.2375 18.775 11.8125 18.775 12.5Z" fill="white"/>
</svg>
