<svg width="31" height="26" viewBox="0 0 31 26" fill="none" xmlns="http://www.w3.org/2000/svg">
<path d="M0.961414 21.6408H12.4998C13.0314 21.6408 13.4616 21.3176 13.4616 20.9196V19.477C13.4616 19.0791 13.0314 18.7562 12.4998 18.7562H0.961414C0.430008 18.7562 0 19.079 0 19.477V20.9196C0 21.3176 0.430008 21.6408 0.961414 21.6408ZM0.961414 25.487H12.4998C13.0314 25.487 13.4616 25.1638 13.4616 24.7658V23.3233C13.4616 22.9252 13.0314 22.6023 12.4998 22.6023H0.961414C0.430008 22.6023 0 22.9252 0 23.3233V24.7658C0 25.1638 0.430008 25.487 0.961414 25.487ZM0.961414 17.7942H12.4998C13.0314 17.7942 13.4616 17.4714 13.4616 17.0733V15.6314C13.4616 15.2331 13.0314 14.9099 12.4998 14.9099H0.961414C0.430008 14.9098 0 15.233 0 15.6314V17.0733C0 17.4714 0.430008 17.7942 0.961414 17.7942ZM15.3424 17.4115C15.3573 17.2988 15.3845 17.1898 15.3845 17.0733V15.6314C15.3845 14.1475 14.1177 12.9868 12.4998 12.9868H8.65374C8.65374 10.3314 10.8061 8.17933 13.4616 8.17933C16.117 8.17933 18.2692 10.3314 18.2692 12.9868C18.2693 14.9738 17.0626 16.6788 15.3424 17.4115ZM0 4.3331H26.923V21.6408H15.27C15.3386 21.4117 15.3845 21.1711 15.3845 20.9196V19.7177H21.1538C21.1538 17.5936 22.876 15.8715 24.9998 15.8715V10.1023C22.876 10.1023 21.1538 8.38016 21.1538 6.25625H5.76925C5.76925 8.38022 4.04725 10.1023 1.92315 10.1023V12.9868H0.961414C0.620566 12.9868 0.301405 13.0489 0 13.1427V4.3331ZM30.769 0.487V19.7177H28.8462V2.41008H1.92315V0.487H30.769Z" fill="white"/>
</svg>
