<svg width="50" height="50" viewBox="0 0 50 50" fill="none" xmlns="http://www.w3.org/2000/svg">
<path d="M28.6156 39.0625L19.4766 48.2016C18.8656 48.8125 18.0672 49.1172 17.2672 49.1172C16.4672 49.1172 15.6672 48.8125 15.0578 48.2016L5.91719 39.0625H28.6156ZM44.0828 10.9375L34.9438 1.79844C34.3328 1.1875 33.5344 0.882812 32.7344 0.882812C31.9344 0.882812 31.1344 1.1875 30.525 1.79844L21.3844 10.9375H44.0828ZM25 17.1875C20.3922 17.1875 18.75 21.2234 18.75 25C18.75 28.7766 20.3922 32.8125 25 32.8125C29.6078 32.8125 31.25 28.7766 31.25 25C31.25 21.2234 29.6078 17.1875 25 17.1875ZM48.4375 34.375C48.4375 36.1016 47.0391 37.5 45.3125 37.5C45.3125 37.5 4.44062 37.4766 4.31719 37.4625C2.875 37.2906 1.74375 36.1437 1.59531 34.6953C1.58438 34.5875 1.5625 15.625 1.5625 15.625C1.5625 13.8984 2.96094 12.5 4.6875 12.5C4.6875 12.5 45.5594 12.5234 45.6828 12.5375C47.125 12.7094 48.2562 13.8563 48.4047 15.3047C48.4156 15.4125 48.4375 34.375 48.4375 34.375ZM7.8125 32.8125C7.8125 31.95 7.1125 31.25 6.25 31.25C5.3875 31.25 4.6875 31.95 4.6875 32.8125C4.6875 33.675 5.3875 34.375 6.25 34.375C7.1125 34.375 7.8125 33.675 7.8125 32.8125ZM7.8125 17.1875C7.8125 16.325 7.1125 15.625 6.25 15.625C5.3875 15.625 4.6875 16.325 4.6875 17.1875C4.6875 18.05 5.3875 18.75 6.25 18.75C7.1125 18.75 7.8125 18.05 7.8125 17.1875ZM32.8125 25C32.8125 19.8219 30.1781 15.625 25 15.625C19.8219 15.625 17.1875 19.8219 17.1875 25C17.1875 30.1781 19.8219 34.375 25 34.375C30.1781 34.375 32.8125 30.1781 32.8125 25ZM45.3125 32.8125C45.3125 31.95 44.6125 31.25 43.75 31.25C42.8875 31.25 42.1875 31.95 42.1875 32.8125C42.1875 33.675 42.8875 34.375 43.75 34.375C44.6125 34.375 45.3125 33.675 45.3125 32.8125ZM45.3125 17.1875C45.3125 16.325 44.6125 15.625 43.75 15.625C42.8875 15.625 42.1875 16.325 42.1875 17.1875C42.1875 18.05 42.8875 18.75 43.75 18.75C44.6125 18.75 45.3125 18.05 45.3125 17.1875Z" fill="#C73200"/>
</svg>
