<svg width="25" height="25" viewBox="0 0 25 25" fill="none" xmlns="http://www.w3.org/2000/svg">
<g clip-path="url(#clip0_564_179)">
<path d="M21.875 3.90625H3.125L0 7.03125V7.8125V10.9375C0 12.6633 1.40078 14.0625 3.125 14.0625V21.875C1.40073 21.875 0 23.2742 0 25H25C25 23.2742 23.6023 21.875 21.875 21.875V14.0625C23.6023 14.0625 25 12.6633 25 10.9375V7.8125V7.03125L21.875 3.90625ZM18.75 10.9375C18.75 11.7996 18.0481 12.5 17.1875 12.5C16.3269 12.5 15.625 11.7996 15.625 10.9375V7.8125H18.75V10.9375ZM9.375 10.9375C9.375 11.7996 8.67461 12.5 7.8125 12.5C6.9519 12.5 6.25 11.7996 6.25 10.9375V7.8125H9.375V10.9375ZM10.9375 7.8125H14.0625V10.9375C14.0625 11.7996 13.3621 12.5 12.5 12.5C11.6394 12.5 10.9375 11.7996 10.9375 10.9375V7.8125ZM1.5625 10.9375V7.8125H4.6875V10.9375C4.6875 11.7996 3.98711 12.5 3.125 12.5C2.2644 12.5 1.5625 11.7996 1.5625 10.9375ZM4.6875 21.875V13.6292C4.98354 13.4567 5.246 13.2416 5.46875 12.9852C6.04248 13.6398 6.87563 14.0625 7.8125 14.0625C8.75244 14.0625 9.58403 13.6398 10.1562 12.9853C10.73 13.6398 11.5631 14.0625 12.5 14.0625C13.0737 14.0625 13.6017 13.8977 14.0625 13.6292V21.875H4.6875ZM20.3125 21.875H15.625V13.6292C16.0858 13.8977 16.6168 14.0625 17.1875 14.0625C18.1274 14.0625 18.9605 13.6398 19.5312 12.9853C19.7571 13.2416 20.0165 13.4567 20.3125 13.6292V21.875ZM23.4375 10.9375C23.4375 11.7996 22.7356 12.5 21.875 12.5C21.0144 12.5 20.3125 11.7996 20.3125 10.9375V7.8125H23.4375V10.9375ZM21.875 3.125H3.125V0H21.875V3.125ZM17.9688 17.1875C17.9688 17.6193 17.6208 17.9688 17.1875 17.9688C16.7572 17.9688 16.4062 17.6193 16.4062 17.1875C16.4062 16.7557 16.7572 16.4062 17.1875 16.4062C17.6208 16.4062 17.9688 16.7557 17.9688 17.1875Z" fill="white"/>
</g>
<defs>
<clipPath id="clip0_564_179">
<rect width="25" height="25" fill="white"/>
</clipPath>
</defs>
</svg>
