<svg width="26" height="25" viewBox="0 0 26 25" fill="none" xmlns="http://www.w3.org/2000/svg">
<path d="M24.9769 9.3677C24.8732 9.05315 24.6848 8.77329 24.4324 8.55893C24.1799 8.34458 23.8732 8.20403 23.546 8.15278L17.0394 7.16284L14.1685 1.0342C14.0232 0.724982 13.7928 0.463526 13.5044 0.280389C13.2159 0.0972519 12.8813 0 12.5396 0C12.198 0 11.8633 0.0972519 11.5749 0.280389C11.2864 0.463526 11.0561 0.724982 10.9107 1.0342L8.03989 7.16284L1.53328 8.15278C1.20502 8.20194 0.896753 8.34092 0.64255 8.55435C0.388348 8.76777 0.198111 9.04733 0.0928704 9.36212C-0.0123704 9.67691 -0.0285166 10.0147 0.0462165 10.3381C0.12095 10.6615 0.283651 10.9579 0.516336 11.1946L5.27705 16.0723L4.16112 22.9119C4.11907 23.1712 4.13428 23.4366 4.20571 23.6894C4.27713 23.9422 4.40302 24.1763 4.57454 24.3753C4.74607 24.5742 4.95907 24.7332 5.19859 24.8411C5.43811 24.949 5.69834 25.0032 5.96101 24.9998C6.2755 25.0047 6.58579 24.9271 6.86096 24.7748L12.5396 21.607L18.2723 24.7748C18.5677 24.9377 18.903 25.0142 19.2398 24.9957C19.5767 24.9772 19.9016 24.8645 20.1774 24.6702C20.4532 24.476 20.669 24.2082 20.7999 23.8973C20.9309 23.5864 20.9719 23.245 20.9181 22.9119L19.8022 16.0723L24.5629 11.1946C24.793 10.9574 24.9533 10.6615 25.0263 10.3392C25.0993 10.017 25.0822 9.68088 24.9769 9.3677Z" fill="white"/>
</svg>
