<svg width="71" height="50" viewBox="0 0 71 50" fill="none" xmlns="http://www.w3.org/2000/svg">
<path d="M12.4385 4.01765C8.00221 6.0233 2.81229 9.30351 2.46118 14.1965L1.42867 15.7408C3.36909 16.4431 6.13856 16.894 8.92881 16.9307C11.8052 16.9694 14.7166 16.5666 16.7901 15.7763L16.1719 14.8126C17.833 14.0525 19.7649 13.7327 21.401 13.4786L21.8684 10.3191C21.9791 9.90494 22.2114 9.06551 22.8721 8.33821C23.5328 7.61088 24.5797 7.13054 25.3134 7.06523C25.3473 7.0618 29.5008 7.06272 29.5008 7.06272C30.0252 7.12539 30.9539 7.3918 31.7149 8.05464C32.4759 8.71734 32.951 9.74989 32.9988 10.4178C32.9998 10.4486 33.0465 12.6721 33.0465 12.6721C34.5434 12.6379 36.0736 12.6335 37.6109 12.6517L37.6632 10.374C37.7155 9.70273 38.1906 8.66801 38.9516 8.0053C39.7126 7.34246 40.6413 7.08722 41.1658 7.02342C41.2158 7.01999 45.3531 7.02143 45.3531 7.02143C46.0868 7.08308 47.1248 7.57265 47.7855 8.29995C48.4462 9.02725 48.6874 9.85789 48.7981 10.2754C48.8135 10.3268 49.2722 13.4803 49.2722 13.4803C51.1403 13.7475 52.8084 14.1174 54.5101 14.8141L53.9916 15.6251C55.9225 16.4019 58.6547 16.8936 61.4186 16.9324C64.2544 16.9711 67.1158 16.5323 69.1935 15.6539L68.2142 14.1849C67.2986 8.79169 62.4785 5.83588 58.2458 4.01922C52.3069 1.50667 44.2432 3.42501e-05 35.3421 0C26.441 0 18.3774 1.5051 12.4385 4.01765ZM26.2644 9.16018C25.0674 9.16018 23.9748 10.0218 23.8183 11.2696L23.24 15.8516C23.2344 15.8944 23.088 16.345 22.7968 16.8465C21.2628 19.2147 19.882 20.7429 17.991 22.6339C16.7558 23.8691 16.044 25.5193 15.9725 27.2559L15.31 43.4017C15.2134 45.7458 17.1094 47.7311 19.4556 47.7311H20.5944V48.8611C20.5922 49.4876 21.0979 49.9975 21.7244 50C22.3544 50.0025 22.8658 49.4911 22.8633 48.8611V47.7311H48.9509V48.8611C48.9486 49.4911 49.4598 50.0025 50.0898 50C50.7163 49.9975 51.2222 49.4876 51.2198 48.8611V47.7311C53.5659 47.7311 55.4685 45.7458 55.372 43.4017L54.6787 26.3901C54.6458 25.5155 53.9248 23.8655 52.6932 22.6339C50.8364 20.8744 49.0917 18.6768 47.9118 16.8465C47.6152 16.3404 47.4448 15.8795 47.439 15.8656L46.7616 10.656C46.6595 10.0424 45.6211 9.16028 44.4197 9.16028H42.1486C40.9089 9.16028 39.8797 10.1895 39.8797 11.4292V15.9669C39.8797 16.6069 39.3808 17.0991 38.7408 17.0991H31.932C31.292 17.0991 30.802 16.6069 30.802 15.9669V11.4292C30.802 10.1895 29.7728 9.16028 28.5331 9.16028L26.2644 9.16018ZM52.7486 17.5599L52.7109 17.6175C52.4582 18.0064 52.4678 18.5103 52.7352 18.8894C53.4266 19.8705 54.2542 20.9522 55.5646 21.6634C59.2961 23.828 63.4978 24.0806 67.649 21.6634C68.4887 21.2298 69.6484 20.5012 70.556 18.7564C70.7472 18.3877 70.7217 17.9441 70.4896 17.5998L70.4694 17.569C67.8968 18.7644 64.6255 19.2436 61.3939 19.1997C58.2211 19.1569 55.1166 18.6117 52.7486 17.5599ZM0.147996 17.6754C-0.0388597 18.0094 -0.0523227 18.415 0.127857 18.7567C1.03546 20.5014 2.19311 21.2299 3.03264 21.6636C7.18134 24.076 11.3879 23.8268 15.117 21.6636C16.4274 20.9524 17.2484 19.8707 17.9398 18.8896C18.1882 18.5427 18.2083 18.0921 18.0174 17.7175C15.4599 18.8096 12.1695 19.2414 8.9043 19.1998C5.6775 19.157 2.52347 18.6596 0.147996 17.6754ZM35.3421 21.5617C41.3107 21.5617 46.1702 26.4213 46.1702 32.3899C46.1702 38.3584 41.3107 43.218 35.3421 43.218C29.3736 43.218 24.5051 38.3584 24.5051 32.3899C24.5051 26.4213 29.3736 21.5617 35.3421 21.5617ZM35.3421 23.8306C30.5998 23.8306 26.774 27.6475 26.774 32.3899C26.774 37.1322 30.5998 40.949 35.3421 40.949C40.0845 40.949 43.8991 37.1322 43.8991 32.3899C43.8991 27.6475 40.0845 23.8306 35.3421 23.8306ZM32.4728 26.9392C33.1028 26.9367 33.6141 27.4481 33.6117 28.0781C33.6094 28.7046 33.0993 29.2105 32.4728 29.2081C31.8497 29.2057 31.3452 28.7011 31.3428 28.0781C31.3405 27.4516 31.8463 26.9416 32.4728 26.9392ZM38.464 27.0741C39.094 27.0717 39.6054 27.583 39.6029 28.213C39.6006 28.8396 39.0906 29.3455 38.464 29.343C37.8409 29.3406 37.3364 28.8361 37.334 28.213C37.3318 27.5865 37.8375 27.0766 38.464 27.0741ZM29.6012 31.5278C30.2312 31.5253 30.7426 32.0366 30.7401 32.6666C30.7378 33.2931 30.2278 33.7991 29.6012 33.7966C28.9773 33.7954 28.4715 33.2906 28.469 32.6666C28.4667 32.0393 28.9738 31.529 29.6012 31.5278ZM35.3355 31.5278C35.9655 31.5253 36.4768 32.0366 36.4743 32.6666C36.4721 33.2931 35.962 33.7991 35.3355 33.7966C34.7124 33.7942 34.2079 33.2897 34.2055 32.6666C34.2032 32.0401 34.7089 31.5302 35.3355 31.5278ZM41.165 31.5278C41.795 31.5253 42.3063 32.0366 42.3038 32.6666C42.3016 33.2931 41.7915 33.7991 41.165 33.7966C40.5419 33.7942 40.0374 33.2897 40.035 32.6666C40.0327 32.0401 40.5384 31.5302 41.165 31.5278ZM38.464 36.1497C39.094 36.1472 39.6054 36.6585 39.6029 37.2885C39.6006 37.915 39.0906 38.421 38.464 38.4185C37.8409 38.4161 37.3364 37.9116 37.334 37.2885C37.3318 36.662 37.8375 36.1521 38.464 36.1497ZM32.4728 36.2846C33.1028 36.2821 33.6141 36.7935 33.6117 37.4235C33.6105 38.0509 33.1002 38.5582 32.4728 38.5557C31.8488 38.5532 31.344 38.0474 31.3428 37.4235C31.3405 36.7969 31.8463 36.287 32.4728 36.2846Z" fill="#C73200"/>
</svg>
