<svg width="51" height="50" viewBox="0 0 51 50" fill="none" xmlns="http://www.w3.org/2000/svg">
<path d="M49.275 45.7232L45.7252 49.273C45.2568 49.7387 44.6232 50 43.9627 50C43.3023 50 42.6687 49.7387 42.2003 49.273L12.5015 19.6242C11.6885 19.8597 10.8478 19.9858 10.0016 19.9992C8.40991 19.9981 6.84149 19.617 5.42674 18.8877C4.01199 18.1583 2.79178 17.1018 1.86756 15.8059C0.943343 14.5101 0.341816 13.0123 0.112993 11.4372C-0.115829 9.86202 0.0346636 8.25501 0.55196 6.74973L6.90171 13.0995L8.22666 11.7745L11.7765 8.22467L13.1015 6.89973L6.75171 0.549978C8.25699 0.0326819 9.864 -0.117811 11.4391 0.111012C13.0143 0.339834 14.5121 0.941361 15.8079 1.86558C17.1038 2.7898 18.1603 4.01001 18.8896 5.42476C19.619 6.83951 20.0001 8.40792 20.0012 9.9996C19.9878 10.8459 19.8617 11.6866 19.6262 12.4995L49.275 42.1983C49.7406 42.6667 50.002 43.3003 50.002 43.9608C50.002 44.6212 49.7406 45.2548 49.275 45.7232ZM0.726953 42.1983C0.261344 42.6667 0 43.3003 0 43.9608C0 44.6212 0.261344 45.2548 0.726953 45.7232L4.27681 49.273C4.7452 49.7387 5.3788 50 6.03924 50C6.69968 50 7.33328 49.7387 7.80167 49.273L21.4761 35.6236L14.4014 28.5489M45.0002 0L35.0006 4.9998V9.9996L29.5758 15.4244L34.5756 20.4242L40.0004 14.9994H45.0002L50 4.9998L45.0002 0Z" fill="#C73200"/>
</svg>
