<svg width="50" height="50" viewBox="0 0 50 50" fill="none" xmlns="http://www.w3.org/2000/svg">
<g clip-path="url(#clip0_566_285)">
<path d="M6.29882 36.6477L5.11362 37.8329L12.167 44.8863L13.3523 43.7011L6.29882 36.6477Z" fill="#C73200"/>
<path d="M39.4886 11.3148L11.0307 39.7727L14.1557 42.8977L42.6137 14.4398L39.4886 11.3148Z" fill="#C73200"/>
<path d="M35.5602 7.38633L7.10233 35.8442L10.2273 38.9692L38.6852 10.5113L35.5602 7.38633Z" fill="#C73200"/>
<path d="M46.8345 10.219C47.2985 9.75605 47.6667 9.20618 47.918 8.60084C48.1694 7.99549 48.299 7.34654 48.2993 6.69108C48.2997 6.03563 48.1709 5.38653 47.9202 4.7809C47.6696 4.17527 47.302 3.62498 46.8385 3.16151C46.375 2.69803 45.8247 2.33045 45.2191 2.07979C44.6135 1.82914 43.9644 1.70031 43.3089 1.70068C42.6535 1.70106 42.0045 1.83062 41.3992 2.08197C40.7938 2.33332 40.244 2.70153 39.781 3.16553L38.3523 4.59428L45.4057 11.6477L46.8345 10.219Z" fill="#C73200"/>
<path d="M37.5488 5.39768L36.3636 6.58289L43.417 13.6363L44.6023 12.4511L37.5488 5.39768Z" fill="#C73200"/>
<path d="M1.73034 47.5578C1.69938 47.6568 1.69611 47.7623 1.72088 47.863C1.74565 47.9638 1.79751 48.0558 1.87085 48.1291C1.94419 48.2025 2.03621 48.2543 2.13693 48.2791C2.23765 48.3039 2.34322 48.3006 2.44221 48.2696L11.2051 45.531L4.46875 38.7949L1.73034 47.5578Z" fill="#C73200"/>
<path d="M5.56421 12.9505C5.67137 12.847 5.81489 12.7898 5.96387 12.7911C6.11284 12.7924 6.25535 12.8521 6.36069 12.9575C6.46604 13.0628 6.52579 13.2053 6.52709 13.3543C6.52838 13.5033 6.47111 13.6468 6.36762 13.7539L3.69148 16.4301L5.72892 18.4675L8.40506 15.7914C8.51222 15.6879 8.65574 15.6306 8.80472 15.6319C8.95369 15.6332 9.0962 15.693 9.20155 15.7983C9.30689 15.9037 9.36665 16.0462 9.36794 16.1951C9.36924 16.3441 9.31197 16.4876 9.20847 16.5948L6.53233 19.2709L8.56977 21.3084L11.2459 18.6322C11.3531 18.5287 11.4966 18.4715 11.6456 18.4728C11.7945 18.4741 11.9371 18.5338 12.0424 18.6392C12.1477 18.7445 12.2075 18.887 12.2088 19.036C12.2101 19.185 12.1528 19.3285 12.0493 19.4356L9.37318 22.1118L11.4106 24.1492L14.0868 21.4731C14.1939 21.3696 14.3374 21.3123 14.4864 21.3136C14.6354 21.3149 14.7779 21.3747 14.8833 21.48C14.9886 21.5854 15.0484 21.7279 15.0496 21.8768C15.0509 22.0258 14.9937 22.1693 14.8902 22.2765L12.214 24.9526L14.3011 27.0397L23.9602 17.3806L9.99432 3.40906L0.732956 12.6647C0.626506 12.772 0.566772 12.917 0.566772 13.0681C0.566772 13.2193 0.626506 13.3643 0.732956 13.4716L2.88801 15.6267L5.56421 12.9505Z" fill="#C73200"/>
<path d="M27.0398 14.3011L13.4716 0.732956C13.3643 0.626506 13.2193 0.566772 13.0682 0.566772C12.9171 0.566772 12.7721 0.626506 12.6648 0.732956L10.7955 2.60796L24.7671 16.5739L27.0398 14.3011Z" fill="#C73200"/>
<path d="M49.2671 36.5284L35.6989 22.9602L33.4261 25.2329L47.3921 39.2045L49.2671 37.3352C49.3735 37.2279 49.4332 37.0829 49.4332 36.9318C49.4332 36.7807 49.3735 36.6357 49.2671 36.5284Z" fill="#C73200"/>
<path d="M22.9602 35.6989L25.0471 37.7858L27.7232 35.1097C27.8304 35.0062 27.9739 34.9489 28.1229 34.9502C28.2719 34.9515 28.4144 35.0113 28.5197 35.1166C28.6251 35.2219 28.6848 35.3645 28.6861 35.5134C28.6874 35.6624 28.6302 35.8059 28.5267 35.9131L25.8505 38.5892L27.888 40.6267L30.5641 37.9505C30.6165 37.8963 30.6792 37.853 30.7485 37.8232C30.8179 37.7934 30.8924 37.7777 30.9678 37.7771C31.0433 37.7764 31.1181 37.7908 31.1879 37.8194C31.2578 37.848 31.3212 37.8901 31.3746 37.9435C31.4279 37.9968 31.4701 38.0603 31.4987 38.1301C31.5272 38.1999 31.5416 38.2747 31.5409 38.3502C31.5403 38.4256 31.5246 38.5002 31.4948 38.5695C31.4651 38.6388 31.4218 38.7015 31.3675 38.7539L28.6914 41.4301L30.7288 43.4675L33.405 40.7914C33.4574 40.7371 33.5201 40.6938 33.5894 40.6641C33.6587 40.6343 33.7333 40.6186 33.8087 40.6179C33.8841 40.6173 33.959 40.6317 34.0288 40.6602C34.0986 40.6888 34.1621 40.731 34.2154 40.7843C34.2688 40.8377 34.3109 40.9011 34.3395 40.971C34.3681 41.0408 34.3825 41.1156 34.3818 41.191C34.3811 41.2665 34.3655 41.341 34.3357 41.4104C34.3059 41.4797 34.2626 41.5424 34.2084 41.5948L31.5322 44.2709L33.5697 46.3084L36.2458 43.6322C36.2982 43.578 36.3609 43.5347 36.4302 43.5049C36.4996 43.4751 36.5741 43.4595 36.6496 43.4588C36.725 43.4581 36.7998 43.4725 36.8696 43.5011C36.9395 43.5297 37.0029 43.5718 37.0563 43.6252C37.1096 43.6785 37.1518 43.742 37.1804 43.8118C37.2089 43.8816 37.2233 43.9565 37.2226 44.0319C37.222 44.1073 37.2063 44.1819 37.1765 44.2512C37.1468 44.3205 37.1035 44.3832 37.0492 44.4356L34.3731 47.1118L36.5284 49.2671C36.6361 49.3727 36.781 49.4318 36.9318 49.4318C37.0827 49.4318 37.2275 49.3727 37.3352 49.2671L46.5909 40.0057L32.6193 26.0398L22.9602 35.6989Z" fill="#C73200"/>
</g>
<defs>
<clipPath id="clip0_566_285">
<rect width="50" height="50" fill="white"/>
</clipPath>
</defs>
</svg>
